<?xml version="1.0" encoding="utf-8"?>
<!-- Generator: Adobe Illustrator 27.2.0, SVG Export Plug-In . SVG Version: 6.00 Build 0)  -->
<svg version="1.1" id="Слой_1" xmlns="http://www.w3.org/2000/svg" xmlns:xlink="http://www.w3.org/1999/xlink" x="0px" y="0px"
	 viewBox="0 0 425.2 425.2" style="enable-background:new 0 0 425.2 425.2;" xml:space="preserve">
<style type="text/css">
	.st0{fill:#FFC41E;}
	.st1{fill:#FFFFFF;}
</style>
<path class="st0" d="M403,184.3c-5.3-8.7-13-15.6-21.9-20.6l-274-151.4c-27.2-13.5-57.2-7.1-77,11C11.4,40.5,5.9,67.8,15.6,91.2
	c11.7,28.3,25,71.7,25,125.6c0,52.8-12.7,95.4-24.1,123.4c-8.1,19.9-5.4,42.8,7.8,59.8c4.4,5.7,10.1,11.1,17.5,15.6
	c19.2,11.8,44,14.3,66.8,2.8l271.9-152.1c4.9-2.7,9.4-6,13.3-10C413.8,235.8,417,206.9,403,184.3z"/>
<g>
	<g>
		<path class="st1" d="M260.2,196c-36.6,19.9-73.2,39.8-109.8,59.8c-5.2,2.8-10.3,5.6-15.5,8.4c-12.4,6.8-17.4,24.9-9.7,36.9
			c8.1,12.6,23.7,16.9,36.9,9.7c36.6-19.9,73.2-39.8,109.8-59.8c5.2-2.8,10.3-5.6,15.5-8.4c12.4-6.8,17.4-24.9,9.7-36.9
			C289.1,193.1,273.5,188.7,260.2,196L260.2,196z"/>
	</g>
</g>
<g>
	<g>
		<path class="st1" d="M136.3,170.6c36.6,19.9,73.2,39.8,109.8,59.8c5.2,2.8,10.3,5.6,15.5,8.4c12.4,6.8,30,3.5,36.9-9.7
			c6.7-12.6,3.6-29.7-9.7-36.9c-36.6-19.9-73.2-39.8-109.8-59.8c-5.2-2.8-10.3-5.6-15.5-8.4c-12.4-6.8-30-3.5-36.9,9.7
			C120,146.3,123.1,163.4,136.3,170.6L136.3,170.6z"/>
	</g>
</g>
<g>
	<g>
		<path class="st1" d="M116.2,146.8c0,40,0,80.1,0,120.1c0,5.6,0,11.2,0,16.7c0,14.1,12.4,27.7,27,27c14.6-0.7,27-11.9,27-27
			c0-40,0-80.1,0-120.1c0-5.6,0-11.2,0-16.7c0-14.1-12.4-27.7-27-27C128.6,120.5,116.2,131.7,116.2,146.8L116.2,146.8z"/>
	</g>
</g>
</svg>
