<?xml version="1.0" encoding="utf-8"?>
<!-- Generator: Adobe Illustrator 27.2.0, SVG Export Plug-In . SVG Version: 6.00 Build 0)  -->
<svg version="1.1" id="Слой_1" xmlns="http://www.w3.org/2000/svg" xmlns:xlink="http://www.w3.org/1999/xlink" x="0px" y="0px"
	 viewBox="0 0 425.2 425.2" style="enable-background:new 0 0 425.2 425.2;" xml:space="preserve">
<style type="text/css">
	.st0{fill:#FFC41E;}
	.st1{fill:#FFFFFF;}
</style>
<path class="st0" d="M129.9,115.2L173.7,28c15.7-31.3,60.8-31.5,76.7-0.2l44.7,87.6c4.1,8.1,10.8,14.7,19.1,18.8l85.9,42.6
	c31.7,15.7,31.5,60.6-0.3,76.1l-83.9,40.9c-8.4,4.1-15.2,10.8-19.4,19.1l-45,88.9c-15.5,30.8-59.6,31.5-76.1,1.2l-46.9-85.8
	c-4-7.2-10-13.2-17.3-17.1l-87.4-47c-30.3-16.3-29.8-59.6,0.9-75.1l86.5-43.8C119.3,129.9,125.9,123.3,129.9,115.2z"/>
<g>
	<g>
		<path class="st1" d="M132.3,239.6c46.4,0,92.7-0.1,139.1-0.1c6.7,0,13.3,0,20,0c14.1,0,27.7-12.4,27-27s-11.9-27-27-27
			c-46.4,0-92.7,0.1-139.1,0.1c-6.7,0-13.3,0-20,0c-14.1,0-27.7,12.4-27,27C105.9,227.2,117.2,239.6,132.3,239.6L132.3,239.6z"/>
	</g>
</g>
<g>
	<g>
		<path class="st1" d="M184.8,133.4c-0.1,46.4-0.2,92.7-0.3,139.1c0,6.7,0,13.3,0,20c0,14.1,12.4,27.7,27,27c14.7-0.7,27-11.9,27-27
			c0.1-46.4,0.2-92.7,0.3-139.1c0-6.7,0-13.3,0-20c0-14.1-12.4-27.7-27-27C197.1,107.1,184.8,118.3,184.8,133.4L184.8,133.4z"/>
	</g>
</g>
</svg>
